<?xml version="1.0" encoding="UTF-8" standalone="no"?>
<!-- Generator: Adobe Illustrator 22.0.1, SVG Export Plug-In . SVG Version: 6.00 Build 0)  -->

<svg
   xmlns:dc="http://purl.org/dc/elements/1.1/"
   xmlns:cc="http://creativecommons.org/ns#"
   xmlns:rdf="http://www.w3.org/1999/02/22-rdf-syntax-ns#"
   xmlns:svg="http://www.w3.org/2000/svg"
   xmlns="http://www.w3.org/2000/svg"
   xmlns:sodipodi="http://sodipodi.sourceforge.net/DTD/sodipodi-0.dtd"
   xmlns:inkscape="http://www.inkscape.org/namespaces/inkscape"
   version="1.1"
   id="Layer_1"
   x="0px"
   y="0px"
   viewBox="0 0 155.71794 136.90306"
   xml:space="preserve"
   sodipodi:docname="EDoC-2019-V-white.svg"
   width="155.71794"
   height="136.90306"
   inkscape:export-filename="/Users/machuga/Desktop/edoc-v.png"
   inkscape:export-xdpi="1233"
   inkscape:export-ydpi="1233"
   inkscape:version="0.92.2 5c3e80d, 2017-08-06"><metadata
     id="metadata34"><rdf:RDF><cc:Work
         rdf:about=""><dc:format>image/svg+xml</dc:format><dc:type
           rdf:resource="http://purl.org/dc/dcmitype/StillImage" /><dc:title></dc:title></cc:Work></rdf:RDF></metadata><defs
     id="defs32" /><sodipodi:namedview
     pagecolor="#ffffff"
     bordercolor="#666666"
     borderopacity="1"
     objecttolerance="10"
     gridtolerance="10"
     guidetolerance="10"
     inkscape:pageopacity="0"
     inkscape:pageshadow="2"
     inkscape:window-width="1442"
     inkscape:window-height="860"
     id="namedview30"
     showgrid="false"
     inkscape:zoom="4.71"
     inkscape:cx="54.511776"
     inkscape:cy="67.164809"
     inkscape:window-x="0"
     inkscape:window-y="0"
     inkscape:window-maximized="0"
     inkscape:current-layer="Layer_1" /><style
     type="text/css"
     id="style2">
	.st0{fill:#EFF1F7;}
	.st1{fill:#53C2FA;}
	.st2{fill:#65C872;}
	.st3{fill:#4931AD;}
</style><path
     class="st0"
     d="M 138.75277,0.01503906 H 95.552771 c -2.7,0 -4.9,2.20000004 -4.9,4.90000004 v 4.5 c 0,2.6999999 2.2,4.8999999 4.9,4.8999999 h 1.8 c 4.599999,0 7.799999,4.6 6.299999,8.9 l -19.599999,54.1 c -2.1,5.8 -10.4,5.8 -12.5,0 l -26.2,-70.1999999 c -1.6,-4.4 -5.9,-7.30000004 -10.6,-7.30000004 h -23.1 -7 c -2.7,0 -4.9,2.20000004 -4.9,4.90000004 v 4.5 c 0,2.6999999 2.2,4.8999999 4.9,4.8999999 h 7.5 c 2.8,0 5.3,1.8 6.3,4.4 l 41.5,114.400001 c 1,2.7 3.6,4.5 6.5,4.5 h 10.6 c 2.8,0 5.3,-1.8 6.3,-4.4 L 122.75277,24.415039 c 2.2,-6.1 8,-10.2 14.5,-10.2 h 1.8 c 2.7,0 4.9,-2.2 4.9,-4.8999999 v -4.4 c -0.3,-2.7 -2.5,-4.90000004 -5.2,-4.90000004 z"
     id="path4"
     inkscape:connector-curvature="0"
     style="fill:#eff1f7" /><g
     id="g27"
     transform="translate(-66.347229,-76.084961)"><g
       id="g15"><g
         id="_x34_bpOWW.tif_65_"><g
           id="g12"><path
             class="st1"
             d="m 165.3,97.8 c 10.3,0.2 20,3.8 28.1,11.5 6.1,5.8 10.1,12.8 11.4,21.1 2.1,13 -1.6,24.2 -10.8,33.5 -6.1,6.2 -13.6,9.9 -22.2,11.5 -1.1,0.2 -2.3,0.3 -3.5,0.4 -0.4,0 -0.5,0.2 -0.5,0.5 0,3 0,6.1 0,9.1 0,3.4 -2.8,6.1 -6.3,5.9 -1.7,-0.1 -3,-0.9 -4.2,-2.1 -2.1,-2.4 -4.3,-4.8 -6.4,-7.2 -6,-6.7 -12,-13.3 -17.9,-20 -4.8,-5.4 -7.9,-11.7 -9.1,-18.9 -1.8,-11 0.8,-20.9 7.6,-29.7 5.6,-7.2 13,-11.9 21.8,-14.3 3.7,-0.8 7.4,-1.3 12,-1.3 z m -4.5,84.9 c 0.1,0 0.1,0 0.2,0 0,-0.2 0,-0.4 0,-0.6 0,-4.1 0,-8.1 0,-12.2 0,-0.6 0.1,-0.7 0.7,-0.7 3.2,0.1 6.3,0 9.4,-0.6 8.8,-1.8 16,-6.1 21.3,-13.3 5,-6.9 7,-14.6 5.7,-23 -1,-6.6 -3.9,-12.2 -8.5,-16.9 -8.3,-8.3 -18.4,-11.6 -29.9,-10.2 -7.8,1 -14.6,4.3 -20.1,10 -7.1,7.3 -10.2,16.1 -8.8,26.3 0.8,6.3 3.6,11.8 7.8,16.5 5.5,6.1 10.9,12.2 16.4,18.3 1.9,2 3.9,4.2 5.8,6.4 z"
             id="path6"
             inkscape:connector-curvature="0"
             style="fill:#53c2fa" /><path
             class="st2"
             d="m 152.5,137.8 c 0.7,0.4 1.4,0.8 1.9,1.3 1.3,1.1 1.8,2.5 1.8,4.1 -0.1,2 -0.7,4 -1.1,5.9 -0.2,0.8 -0.3,1.7 -0.2,2.6 0.2,1.4 1,2.4 2.4,2.8 0.6,0.2 1.2,0.3 1.8,0.2 0.3,0 0.4,0.1 0.4,0.4 0,1.3 0,2.6 0,3.9 0,0.3 -0.1,0.4 -0.3,0.4 -2.4,0 -4.8,-0.2 -7,-1.2 -3.3,-1.4 -4.4,-4.1 -4.1,-7.4 0.2,-1.7 0.6,-3.2 1,-4.8 0.8,-2.8 0,-4.7 -2.6,-5.8 -1,-0.4 -1.3,-0.9 -1.2,-1.9 0.1,-0.6 0,-1.2 0,-1.7 0,-0.3 0.1,-0.5 0.4,-0.6 0.8,-0.3 1.5,-0.7 2.2,-1.2 1.3,-1.1 1.9,-2.5 1.4,-4.2 -0.5,-1.8 -1,-3.6 -1.2,-5.5 -0.4,-3.8 1.1,-6.5 4.9,-7.8 2,-0.7 4.1,-0.9 6.2,-0.9 0.3,0 0.4,0.1 0.4,0.4 0,1.3 0,2.6 0,3.8 0,0.3 -0.1,0.4 -0.4,0.4 -0.5,0 -1,0 -1.6,0.2 -1.9,0.5 -2.9,1.9 -2.7,3.9 0.2,1.5 0.6,2.9 0.9,4.3 0.3,1.3 0.5,2.5 0.4,3.8 -0.1,1.5 -0.8,2.6 -1.9,3.6 -0.5,0.2 -1.1,0.6 -1.8,1 z"
             id="path8"
             inkscape:connector-curvature="0"
             style="fill:#65c872" /><path
             class="st2"
             d="m 176.4,137.8 c -0.5,-0.3 -0.9,-0.6 -1.3,-0.9 -1.9,-1.3 -2.6,-3.2 -2.3,-5.4 0.2,-1.8 0.7,-3.6 1.1,-5.4 0.2,-0.7 0.3,-1.5 0.2,-2.2 -0.2,-1.6 -1.3,-2.7 -3,-2.9 -0.4,-0.1 -0.8,-0.1 -1.2,-0.1 -0.4,0 -0.4,-0.1 -0.4,-0.5 0,-1.3 0,-2.5 0,-3.8 0,-0.3 0.1,-0.4 0.4,-0.4 2.3,0 4.6,0.3 6.8,1.2 2.8,1.1 4.2,3.3 4.3,6.3 0,2.1 -0.5,4.1 -1.1,6.1 -0.3,1 -0.5,2 -0.1,3 0.6,1.5 1.8,2.3 3.2,2.9 0.6,0.2 0.7,0.5 0.7,1 -0.1,0.8 0,1.6 0,2.4 0,0.3 -0.1,0.5 -0.4,0.6 -0.8,0.3 -1.6,0.7 -2.3,1.3 -1.2,1.1 -1.7,2.4 -1.3,4 0.4,1.8 1,3.5 1.2,5.3 0.2,2.2 0.1,4.4 -1.6,6.1 -1.3,1.4 -2.9,2 -4.7,2.4 -1.5,0.3 -3.1,0.5 -4.6,0.5 -0.3,0 -0.5,-0.1 -0.4,-0.4 0,-1.2 0,-2.5 0,-3.7 0,-0.4 0.1,-0.5 0.5,-0.5 0.5,0 0.9,0 1.4,-0.1 2.1,-0.5 3.1,-2.1 2.7,-4.3 -0.3,-1.6 -0.7,-3.1 -1,-4.7 -0.2,-1.1 -0.4,-2.2 -0.3,-3.4 0.2,-1.7 1.2,-2.9 2.6,-3.8 0.2,-0.2 0.5,-0.4 0.9,-0.6 z"
             id="path10"
             inkscape:connector-curvature="0"
             style="fill:#65c872" /></g></g></g><g
       id="g25"><path
         class="st3"
         d="m 185.9,195.8 h -10.6 v -2.6 l 3.6,-3.6 c 1,-1.1 1.7,-1.8 2,-2.2 0.3,-0.4 0.5,-0.7 0.7,-1 0.1,-0.3 0.2,-0.6 0.2,-0.9 0,-0.4 -0.1,-0.7 -0.4,-0.9 -0.3,-0.2 -0.6,-0.3 -1,-0.3 -0.5,0 -0.9,0.1 -1.4,0.4 -0.5,0.3 -1,0.7 -1.6,1.2 l -2.2,-2.5 c 0.8,-0.7 1.4,-1.2 1.9,-1.4 0.5,-0.3 1.1,-0.5 1.7,-0.7 0.6,-0.2 1.3,-0.2 2,-0.2 0.9,0 1.8,0.2 2.5,0.5 0.7,0.3 1.3,0.8 1.7,1.4 0.4,0.6 0.6,1.3 0.6,2.1 0,0.6 -0.1,1.1 -0.2,1.6 -0.1,0.5 -0.4,1 -0.7,1.4 -0.3,0.5 -0.7,1 -1.2,1.5 -0.5,0.5 -1.6,1.5 -3.2,3 v 0.1 h 5.5 z"
         id="path17"
         inkscape:connector-curvature="0"
         style="fill:#eff1f7;fill-opacity:1" /><path
         class="st3"
         d="m 198,188.5 c 0,2.6 -0.4,4.5 -1.3,5.7 -0.9,1.2 -2.2,1.8 -4,1.8 -1.7,0 -3.1,-0.6 -3.9,-1.9 -0.9,-1.3 -1.3,-3.1 -1.3,-5.6 0,-2.6 0.4,-4.5 1.3,-5.7 0.9,-1.2 2.2,-1.8 4,-1.8 1.7,0 3,0.6 3.9,1.9 0.8,1.3 1.3,3.1 1.3,5.6 z m -6.7,0 c 0,1.7 0.1,2.8 0.3,3.4 0.2,0.6 0.6,0.9 1,0.9 0.5,0 0.8,-0.3 1,-1 0.2,-0.6 0.3,-1.8 0.3,-3.4 0,-1.6 -0.1,-2.7 -0.3,-3.4 -0.2,-0.6 -0.6,-1 -1,-1 -0.5,0 -0.8,0.3 -1,0.9 -0.2,0.8 -0.3,2 -0.3,3.6 z"
         id="path19"
         inkscape:connector-curvature="0"
         style="fill:#eff1f7;fill-opacity:1" /><path
         class="st3"
         d="m 208.1,195.8 h -4 v -7.7 c 0,-0.9 0,-1.8 0.1,-2.6 -0.2,0.3 -0.6,0.6 -0.9,0.9 l -1.7,1.4 -2,-2.5 5,-4.1 h 3.6 v 14.6 z"
         id="path21"
         inkscape:connector-curvature="0"
         style="fill:#eff1f7;fill-opacity:1" /><path
         class="st3"
         d="m 222,187.9 c 0,2.9 -0.6,4.9 -1.8,6.2 -1.2,1.3 -3.2,1.9 -5.9,1.9 -0.9,0 -1.6,0 -2,-0.1 v -3.1 c 0.6,0.1 1.1,0.2 1.7,0.2 1.4,0 2.5,-0.3 3.3,-0.9 0.8,-0.6 1.2,-1.5 1.2,-2.8 h -0.1 c -0.3,0.5 -0.5,0.8 -0.8,1 -0.3,0.2 -0.6,0.4 -0.9,0.5 -0.4,0.1 -0.8,0.2 -1.4,0.2 -1.3,0 -2.3,-0.4 -3,-1.3 -0.7,-0.8 -1.1,-2 -1.1,-3.5 0,-1.6 0.5,-2.9 1.4,-3.8 0.9,-0.9 2.2,-1.4 3.8,-1.4 1.8,0 3.2,0.6 4.1,1.8 1,1.2 1.5,2.9 1.5,5.1 z m -5.5,-3.7 c -0.4,0 -0.8,0.2 -1.1,0.5 -0.3,0.3 -0.4,0.8 -0.4,1.5 0,0.5 0.1,1 0.3,1.3 0.2,0.3 0.6,0.5 1.1,0.5 0.4,0 0.8,-0.2 1.1,-0.5 0.3,-0.3 0.5,-0.7 0.5,-1.1 0,-0.6 -0.1,-1.1 -0.4,-1.5 -0.3,-0.5 -0.7,-0.7 -1.1,-0.7 z"
         id="path23"
         inkscape:connector-curvature="0"
         style="fill:#eff1f7;fill-opacity:1" /></g></g><rect
     id="rect36"
     width="155.71794"
     height="136.90306"
     x="0"
     y="0"
     style="fill:none;stroke-width:0.9939307"
     ry="17.174217" /><rect
     style="fill:none"
     id="rect38"
     width="155.71794"
     height="136.90306"
     x="0"
     y="0"
     ry="17.3295" /><rect
     style="fill:none"
     id="rect40"
     width="155.71794"
     height="136.90306"
     x="0"
     y="0"
     ry="17.3295" /></svg>